<?xml version="1.0" standalone="no"?>
<!DOCTYPE svg PUBLIC "-//W3C//DTD SVG 20010904//EN"
 "http://www.w3.org/TR/2001/REC-SVG-20010904/DTD/svg10.dtd">
<svg version="1.0" xmlns="http://www.w3.org/2000/svg"
 width="192.000000pt" height="192.000000pt" viewBox="0 0 192.000000 192.000000"
 preserveAspectRatio="xMidYMid meet">

<g transform="translate(0.000000,192.000000) scale(0.100000,-0.100000)"
fill="#000000" stroke="none">
<path d="M791 1776 c-47 -17 -105 -68 -126 -112 -23 -48 -23 -145 0 -215 50
-155 186 -353 301 -438 34 -25 110 -82 170 -126 246 -180 374 -354 406 -551 9
-52 15 -64 29 -64 27 0 134 219 125 255 -9 34 -259 285 -376 377 -159 125
-253 240 -344 424 -64 128 -102 246 -110 335 l-6 64 28 -80 c15 -44 43 -107
60 -140 81 -151 262 -352 453 -502 57 -45 158 -125 224 -177 l120 -95 3 62 c7
122 -32 278 -101 407 -49 91 -133 195 -248 304 -239 228 -459 326 -608 272z"/>
<path d="M457 1660 c-59 -40 -156 -144 -190 -205 -28 -48 -43 -97 -49 -150 -3
-29 -2 -30 32 -27 60 6 216 40 256 57 37 15 37 15 19 -5 -21 -23 -139 -70
-242 -96 l-73 -18 0 -78 c0 -43 3 -78 6 -78 4 0 56 28 116 62 78 44 126 79
164 121 60 64 68 57 26 -22 -36 -68 -117 -149 -213 -212 -46 -30 -79 -58 -79
-68 1 -30 59 -182 98 -255 54 -99 119 -182 210 -266 88 -82 269 -207 356 -245
52 -23 63 -25 90 -14 58 23 118 71 147 117 35 56 37 86 5 107 -28 19 -41 16
-179 -31 -102 -35 -170 -42 -198 -21 -23 18 -39 52 -39 85 0 33 -12 46 -52 56
-20 5 -28 13 -28 29 0 13 -9 26 -22 32 -16 7 -24 20 -26 43 -4 38 -28 56 -87
67 -73 13 -81 34 -35 98 16 23 32 56 36 73 6 29 4 33 -24 39 -30 6 -30 6 -14
34 15 26 14 31 -9 77 l-24 49 51 51 c35 36 59 73 78 118 30 76 32 98 11 156
-8 24 -27 111 -41 194 -14 83 -26 152 -28 153 -1 2 -23 -11 -49 -27z"/>
<path d="M635 1059 c-45 -11 -85 -44 -85 -71 0 -24 5 -23 74 12 32 17 68 30
78 30 13 0 18 6 16 18 -4 20 -29 24 -83 11z"/>
<path d="M771 934 c-50 -27 -103 -31 -121 -9 -16 19 -31 20 -24 1 3 -8 -5 -24
-18 -36 l-23 -22 71 4 c58 3 79 9 112 32 22 15 43 34 46 42 3 8 4 14 3 13 -1
0 -22 -11 -46 -25z"/>
</g>
</svg>
